# xmcd CD database file
#
# Track frame offsets:
#	150
#	17784
#	35269
#	55346
#	72366
#	88527
#	112914
#	130491
#	141488
#	160564
#	177446
#	192818
#
# Disc length: 2778 seconds
#
# Revision: 1
# Processed by: cddbd v1.5.2PL0 Copyright (c) Steve Scherf et al.
# Submitted via: CDex 1.51
#
DISCID=a20ad80c
DTITLE=Anna Ternheim - The Night Visitor
DYEAR=2011
DGENRE=Country
TTITLE0=Solitary Move
TTITLE1=The Longer The Waiting (The Sweeter The Kiss)
TTITLE2=Lorelie-Marie
TTITLE3=Ghost Of A Man
TTITLE4=What Remains?
TTITLE5=Bow Your Head
TTITLE6=Walking Aimlessly
TTITLE7=God Don't Know
TTITLE8=Black Light Shines
TTITLE9=All Shadows
TTITLE10=Come To Bed
TTITLE11=Dearest Dear
EXTD=YEAR: 2011
EXTT0=
EXTT1=
EXTT2=
EXTT3=
EXTT4=
EXTT5=
EXTT6=
EXTT7=
EXTT8=
EXTT9=
EXTT10=
EXTT11=
PLAYORDER=
